Coordinates
version=1
nRows=19
nColumns=63
inDegrees=yes

Units are S.I. units (second, meters, Newtons, ...)
If the header above contains a line with 'inDegrees', this indicates whether rotational values are in degrees (yes) or radians (no).

endheader
time	pelvis_tilt	pelvis_list	pelvis_rotation	pelvis_tx	pelvis_ty	pelvis_tz	hip_flexion_r	hip_adduction_r	hip_rotation_r	knee_angle_r	knee_angle_r_beta	ankle_angle_r	subtalar_angle_r	mtp_angle_r	hip_flexion_l	hip_adduction_l	hip_rotation_l	knee_angle_l	knee_angle_l_beta	ankle_angle_l	subtalar_angle_l	mtp_angle_l	L5_S1_Flex_Ext	L5_S1_Lat_Bending	L5_S1_axial_rotation	L4_L5_Flex_Ext	L4_L5_Lat_Bending	L4_L5_axial_rotation	L3_L4_Flex_Ext	L3_L4_Lat_Bending	L3_L4_axial_rotation	L2_L3_Flex_Ext	L2_L3_Lat_Bending	L2_L3_axial_rotation	L1_L2_Flex_Ext	L1_L2_Lat_Bending	L1_L2_axial_rotation	L1_T12_Flex_Ext	L1_T12_Lat_Bending	L1_T12_axial_rotation	Abs_r3	Abs_r2	Abs_r1	Abs_t1	Abs_t2	neck_flexion	neck_bending	neck_rotation	arm_flex_r	arm_add_r	arm_rot_r	elbow_flex_r	pro_sup_r	wrist_flex_r	wrist_dev_r	arm_flex_l	arm_add_l	arm_rot_l	elbow_flex_l	pro_sup_l	wrist_flex_l	wrist_dev_l
5.796610	-3.720930	-5.839591	87.154047	0.267057	0.744846	0.658634	3.972891	-4.311440	6.319731	4.325062	0.075487	9.674819	-3.822364	0.000000	2.292621	1.577962	-16.761577	1.024460	0.017880	16.775538	10.884326	0.000000	-0.065674	-0.548599	1.821240	-0.121963	-0.729637	1.935068	-0.107896	-1.333864	1.935068	-0.075059	-1.333864	1.593585	-0.060985	-1.118703	1.479758	-0.037526	-0.849780	1.365930	-0.469103	-6.205863	10.129192	0.000000	0.000000	25.002233	1.504947	-10.064147	4.280877	-11.745601	2.334493	92.600233	81.227885	-6.317850	15.149074	27.300970	-11.229966	37.603019	52.320964	87.469643	-14.465992	6.731403
5.813559	-3.736360	-5.974028	85.865773	0.269274	0.745194	0.659865	4.567569	-4.154863	7.270129	4.650462	0.081166	9.205731	-3.617307	0.000000	2.407781	1.469650	-17.907799	0.929182	0.016217	16.550222	10.684252	0.000000	-0.055639	-0.560204	1.913289	-0.103328	-0.745071	2.032869	-0.091410	-1.362080	2.032869	-0.063590	-1.362080	1.674128	-0.051667	-1.142368	1.554547	-0.031792	-0.867756	1.434967	-0.397426	-6.337140	10.641139	0.000000	0.000000	25.119169	1.979193	-9.537484	3.732227	-11.856606	0.909116	95.644105	82.283706	-6.887503	13.376643	27.554033	-11.618558	35.576613	51.789290	88.605516	-14.864768	8.271302
5.830508	-3.771968	-6.089802	84.531302	0.271645	0.745671	0.660997	5.126719	-4.006722	8.225058	4.935235	0.086136	8.665437	-3.436082	0.000000	2.502615	1.375328	-19.024992	0.841122	0.014680	16.306838	10.424678	0.000000	-0.046328	-0.574476	2.030199	-0.086035	-0.764054	2.157087	-0.076112	-1.396782	2.157087	-0.052948	-1.396782	1.776424	-0.043020	-1.171472	1.649537	-0.026472	-0.889864	1.522649	-0.330914	-6.498591	11.291359	0.000000	0.000000	25.186069	2.404089	-9.067430	3.150140	-11.888693	-0.551623	98.556429	83.241629	-7.363278	11.553320	27.791009	-11.960704	33.842753	51.027749	89.071624	-15.264213	9.544124
5.847458	-3.809935	-6.182514	83.194930	0.274080	0.746251	0.661962	5.613323	-3.867244	9.064835	5.137057	0.089659	8.085571	-3.119582	0.000000	2.570457	1.283441	-20.162981	0.764720	0.013347	16.084613	10.239070	0.000000	-0.038201	-0.588938	2.158965	-0.070944	-0.783287	2.293901	-0.062761	-1.431944	2.293901	-0.043660	-1.431944	1.889095	-0.035474	-1.200962	1.754159	-0.021828	-0.912265	1.619224	-0.272869	-6.662184	12.007517	0.000000	0.000000	25.235295	2.776975	-8.633979	2.634601	-11.925939	-1.907901	101.323351	83.667409	-7.737755	9.940598	27.835096	-12.214940	31.468195	50.094763	89.811473	-15.157915	10.742717
5.864407	-3.853836	-6.241528	81.918233	0.276506	0.746918	0.662697	5.990575	-3.745543	9.854327	5.231126	0.091300	7.437851	-2.850389	0.000000	2.598143	1.204339	-21.220752	0.698430	0.012190	15.882669	10.069147	0.000000	-0.031969	-0.604483	2.300481	-0.059370	-0.803962	2.444261	-0.052522	-1.469740	2.444261	-0.036538	-1.469740	2.012921	-0.029687	-1.232662	1.869140	-0.018267	-0.936344	1.725360	-0.228354	-6.838032	12.794583	0.000000	0.000000	25.255163	3.091192	-8.308650	2.172946	-11.968200	-3.320486	104.017444	83.771488	-7.941677	8.879559	27.936608	-12.400088	29.864944	48.705612	89.695437	-14.757465	11.438567
5.881356	-3.894023	-6.247487	80.780988	0.278815	0.747674	0.663160	6.219013	-3.640560	10.558958	5.206327	0.090868	6.738769	-2.674951	0.000000	2.565337	1.134466	-22.151296	0.641032	0.011188	15.703631	9.966812	0.000000	-0.030697	-0.620009	2.430676	-0.057008	-0.824612	2.582594	-0.050433	-1.507489	2.582594	-0.035084	-1.507489	2.126842	-0.028506	-1.264322	1.974925	-0.017540	-0.960394	1.823007	-0.219268	-7.013664	13.518693	0.000000	0.000000	25.257270	3.395376	-8.002129	1.817611	-12.040035	-4.760150	106.648949	83.645369	-7.973758	8.492921	28.055207	-12.503305	28.872212	46.844174	89.133873	-13.998441	11.686056
5.898305	-3.954730	-6.201447	79.716813	0.281099	0.748445	0.663300	6.306127	-3.581369	11.417649	5.061971	0.088348	6.028275	-2.782590	0.000000	2.467319	1.108354	-23.071165	0.595642	0.010396	15.552564	9.925423	0.000000	-0.032192	-0.640070	2.569808	-0.059783	-0.851293	2.730421	-0.052888	-1.556266	2.730421	-0.036792	-1.556266	2.248582	-0.029893	-1.305230	2.087969	-0.018394	-0.991468	1.927356	-0.229942	-7.240598	14.292499	0.000000	0.000000	25.261336	3.673401	-7.894306	1.444788	-12.148382	-6.301731	109.309628	83.457717	-8.024674	8.700321	28.101329	-12.640804	25.730736	44.898304	91.166454	-13.184783	11.683013
5.915254	-3.992683	-6.090228	78.851430	0.283115	0.749261	0.663111	6.218534	-3.536660	12.100682	4.809199	0.083936	5.387985	-2.865939	0.000000	2.292398	1.086357	-23.834813	0.563365	0.009833	15.438257	9.931377	0.000000	-0.038745	-0.656789	2.673967	-0.071953	-0.873529	2.841090	-0.063654	-1.596916	2.841090	-0.044282	-1.596916	2.339721	-0.035979	-1.339324	2.172598	-0.022139	-1.017366	2.005475	-0.276752	-7.429727	14.871802	0.000000	0.000000	25.233794	3.937798	-7.771893	1.086884	-12.328302	-7.867473	112.013544	83.287388	-8.027812	9.585056	28.291268	-12.713962	24.896634	42.321289	91.583683	-12.115183	10.960110
5.932203	-4.002764	-5.908696	78.241326	0.284777	0.750103	0.662566	5.943907	-3.503758	12.589458	4.463226	0.077898	4.830644	-2.978745	0.000000	2.035143	1.065271	-24.371150	0.545655	0.009523	15.360896	9.960524	0.000000	-0.050352	-0.669253	2.729287	-0.093509	-0.890107	2.899867	-0.082723	-1.627222	2.899867	-0.057547	-1.627222	2.388126	-0.046757	-1.364741	2.217545	-0.028771	-1.036673	2.046965	-0.359659	-7.570726	15.179473	0.000000	0.000000	25.156400	4.205498	-7.600630	0.654202	-12.547166	-9.531590	114.780673	83.328244	-7.785220	10.978367	28.638548	-12.773112	26.158814	39.224539	90.314164	-11.051249	9.544862
5.949153	-3.983672	-5.651992	77.891889	0.286052	0.750944	0.661655	5.482246	-3.484448	12.861625	4.044128	0.070583	4.385165	-3.084118	0.000000	1.686119	1.045295	-24.653515	0.539922	0.009423	15.326894	9.984236	0.000000	-0.067106	-0.677169	2.736994	-0.124623	-0.900634	2.908056	-0.110249	-1.646468	2.908056	-0.076696	-1.646468	2.394870	-0.062315	-1.380882	2.223808	-0.038345	-1.048934	2.052746	-0.479335	-7.660267	15.222340	0.000000	0.000000	25.015805	4.445890	-7.418690	0.054198	-12.814853	-11.295737	117.604858	83.429151	-7.228799	12.518771	29.156402	-12.823773	29.298736	35.727336	87.505625	-10.248987	7.557421
5.966102	-3.930330	-5.336852	77.879674	0.286826	0.751755	0.660384	4.841766	-3.472215	12.820409	3.561497	0.062160	4.057239	-3.176910	0.000000	1.268501	1.017885	-24.614107	0.551063	0.009618	15.341775	10.040925	0.000000	-0.087226	-0.679329	2.674356	-0.161988	-0.903508	2.841503	-0.143304	-1.651720	2.841503	-0.099691	-1.651720	2.340062	-0.080998	-1.385288	2.172914	-0.049841	-1.052281	2.005767	-0.623050	-7.684705	14.873967	0.000000	0.000000	24.825536	4.694152	-7.153937	-0.711613	-13.129494	-13.088729	120.457332	83.411078	-6.391631	14.069979	29.744776	-12.880437	33.905312	31.944333	83.337243	-9.687882	5.022764
5.983051	-3.835911	-4.982635	78.131430	0.287193	0.752505	0.658749	4.072733	-3.443707	12.626555	3.051386	0.053257	3.787687	-3.389155	0.000000	0.798756	0.966789	-24.310681	0.580080	0.010124	15.407807	10.098115	0.000000	-0.107770	-0.675175	2.559992	-0.200139	-0.897983	2.719992	-0.177055	-1.641621	2.719992	-0.123170	-1.641621	2.239993	-0.100075	-1.376817	2.079994	-0.061580	-1.045846	1.919994	-0.769787	-7.637716	14.237910	0.000000	0.000000	24.581406	4.901015	-6.891201	-1.636509	-13.483329	-14.916263	123.330539	83.481649	-5.420215	15.500519	30.394952	-12.944746	39.952904	27.946677	78.111897	-9.717399	2.069074
6.000000	-3.723264	-4.608078	78.625951	0.287178	0.753190	0.656789	3.210431	-3.420576	12.244724	2.531705	0.044187	3.577609	-3.663786	0.000000	0.298152	0.914149	-23.725356	0.624742	0.010904	15.517067	10.113247	0.000000	-0.127625	-0.667913	2.400217	-0.237012	-0.888324	2.550231	-0.209675	-1.623963	2.550231	-0.145862	-1.623963	2.100190	-0.118512	-1.362007	1.950177	-0.072925	-1.034597	1.800163	-0.911612	-7.555561	13.349288	0.000000	0.000000	24.323650	5.085933	-6.660085	-2.640400	-13.853233	-16.799172	126.191964	83.551876	-4.302436	16.903196	31.077237	-13.004087	47.264922	23.893576	72.352798	-10.314231	-0.838253
6.016949	-3.604075	-4.234821	79.293194	0.286901	0.753807	0.654564	2.316007	-3.395340	11.764884	2.043911	0.035673	3.422633	-4.023576	0.000000	-0.203938	0.856998	-22.946400	0.692105	0.012080	15.646210	10.102753	0.000000	-0.144869	-0.658940	2.197140	-0.269037	-0.876390	2.334461	-0.238006	-1.602147	2.334461	-0.165571	-1.602147	1.922498	-0.134526	-1.343710	1.785176	-0.082778	-1.020698	1.647855	-1.034786	-7.454061	12.219835	0.000000	0.000000	24.074897	5.253618	-6.433233	-3.560114	-14.255787	-18.588845	129.013118	83.701220	-3.312583	18.484062	31.690911	-13.094679	55.511107	19.977255	66.605018	-11.107739	-3.311830
6.033898	-3.476391	-3.883297	80.088421	0.286416	0.754365	0.652127	1.434399	-3.354884	11.210345	1.606043	0.028031	3.337911	-4.436025	0.000000	-0.684102	0.787587	-22.015714	0.776021	0.013544	15.789174	10.041476	0.000000	-0.157899	-0.648076	1.957226	-0.293234	-0.861941	2.079552	-0.259413	-1.575731	2.079552	-0.180463	-1.575731	1.712572	-0.146625	-1.321556	1.590246	-0.090224	-1.003869	1.467919	-1.127858	-7.331161	10.885502	0.000000	0.000000	23.864362	5.430971	-6.191627	-4.306454	-14.663348	-20.304589	131.750552	83.890072	-2.351371	20.270235	32.221467	-13.213365	64.533862	16.287078	61.187883	-11.968203	-5.128035
6.050847	-3.339293	-3.560466	81.003595	0.285718	0.754889	0.649549	0.589123	-3.296937	10.544630	1.228832	0.021447	3.347979	-4.845065	0.000000	-1.123814	0.701273	-21.018412	0.881847	0.015391	15.937284	10.018150	0.000000	-0.166904	-0.635581	1.672792	-0.309958	-0.845323	1.777341	-0.274207	-1.545353	1.777341	-0.190755	-1.545353	1.463693	-0.154987	-1.296078	1.359143	-0.095369	-0.984516	1.254594	-1.192181	-7.189823	9.303565	0.000000	0.000000	23.688236	5.644786	-5.910278	-4.785007	-15.050538	-21.962264	134.301669	83.937096	-1.196917	22.064928	32.576843	-13.374363	73.121360	12.977846	57.070965	-12.724325	-6.224440
6.067797	-3.207541	-3.258624	82.018716	0.284869	0.755409	0.646880	-0.214214	-3.234716	9.781199	0.924457	0.016135	3.466579	-5.236007	0.000000	-1.524941	0.611320	-19.955300	1.009820	0.017625	16.076459	9.984402	0.000000	-0.173974	-0.623510	1.348158	-0.323087	-0.829269	1.432418	-0.285822	-1.516003	1.432418	-0.198835	-1.516003	1.179638	-0.161552	-1.271462	1.095378	-0.099409	-0.965817	1.011119	-1.242678	-7.053273	7.498051	0.000000	0.000000	23.540194	5.873570	-5.590847	-4.970510	-15.359146	-23.678212	136.638733	83.932786	0.442337	23.657828	32.766398	-13.654853	82.244825	10.082580	52.861706	-13.464161	-6.707923
6.084746	-3.072936	-2.982647	83.024515	0.284021	0.755910	0.644190	-0.950963	-3.146842	8.951759	0.695207	0.012134	3.697172	-5.500275	0.000000	-1.885007	0.498859	-18.931596	1.163994	0.020316	16.227068	9.940797	0.000000	-0.177490	-0.611389	1.004571	-0.329616	-0.813148	1.067357	-0.291598	-1.486532	1.067357	-0.202853	-1.486532	0.879000	-0.164817	-1.246745	0.816214	-0.101418	-0.947042	0.753428	-1.267791	-6.916157	5.587122	0.000000	0.000000	23.407293	6.179819	-5.185251	-4.883073	-15.578137	-25.559846	138.715531	83.652238	2.831971	24.659352	32.714388	-14.031176	91.159045	7.674343	48.567553	-13.959235	-6.665700
6.101695	-2.951335	-2.729785	84.029773	0.283198	0.756395	0.641540	-1.620016	-3.049103	8.010992	0.546786	0.009543	4.011834	-5.611709	0.000000	-2.197654	0.377441	-17.946634	1.345335	0.023481	16.385387	9.908577	0.000000	-0.178767	-0.602074	0.651435	-0.331989	-0.800758	0.692150	-0.293697	-1.463882	0.692150	-0.204313	-1.463882	0.570006	-0.166003	-1.227749	0.529291	-0.102148	-0.932612	0.488577	-1.276917	-6.810779	3.623089	0.000000	0.000000	23.276362	6.513872	-4.780351	-4.581640	-15.671060	-27.748673	140.557871	83.141346	6.018495	24.821740	32.414061	-14.508048	99.448301	5.769679	44.168828	-14.122138	-6.326478
